<svg width="23" height="23" viewBox="0 0 23 23" version="1.1" xmlns="http://www.w3.org/2000/svg" xmlns:xlink="http://www.w3.org/1999/xlink">
<title>&#239;&#129;&#167;</title>
<desc>Created using Figma</desc>
<g id="Canvas" transform="translate(173 231)">
<g id="&#239;&#129;&#167;">
<use xlink:href="#path0_fill" transform="translate(-173 -231)" fill="#9DA5A9"/>
</g>
</g>
<defs>
<path id="path0_fill" d="M 23 9.93182L 23 13.0682C 23 13.5038 22.8475 13.8741 22.5426 14.179C 22.2377 14.4839 21.8674 14.6364 21.4318 14.6364L 14.6364 14.6364L 14.6364 21.4318C 14.6364 21.8674 14.4839 22.2377 14.179 22.5426C 13.8741 22.8475 13.5038 23 13.0682 23L 9.93182 23C 9.49621 23 9.12595 22.8475 8.82102 22.5426C 8.5161 22.2377 8.36364 21.8674 8.36364 21.4318L 8.36364 14.6364L 1.56818 14.6364C 1.13258 14.6364 0.762311 14.4839 0.457386 14.179C 0.152462 13.8741 0 13.5038 0 13.0682L 0 9.93182C 0 9.49621 0.152462 9.12595 0.457386 8.82102C 0.762311 8.5161 1.13258 8.36364 1.56818 8.36364L 8.36364 8.36364L 8.36364 1.56818C 8.36364 1.13258 8.5161 0.762311 8.82102 0.457386C 9.12595 0.152462 9.49621 0 9.93182 0L 13.0682 0C 13.5038 0 13.8741 0.152462 14.179 0.457386C 14.4839 0.762311 14.6364 1.13258 14.6364 1.56818L 14.6364 8.36364L 21.4318 8.36364C 21.8674 8.36364 22.2377 8.5161 22.5426 8.82102C 22.8475 9.12595 23 9.49621 23 9.93182Z"/>
</defs>
</svg>
