<svg width="28" height="23" viewBox="0 0 28 23" version="1.1" xmlns="http://www.w3.org/2000/svg" xmlns:xlink="http://www.w3.org/1999/xlink">
<title>&#239;&#139;&#148;</title>
<desc>Created using Figma</desc>
<g id="Canvas" transform="translate(206 231)">
<g id="&#239;&#139;&#148;">
<use xlink:href="#path0_fill" transform="translate(-206 -231)" fill="#646991"/>
</g>
</g>
<defs>
<path id="path0_fill" d="M 19.6406 14.7194L 17.3594 16.9056C 17.2552 17.0054 17.1354 17.0553 17 17.0553C 16.8646 17.0553 16.7448 17.0054 16.6406 16.9056L 14 14.375L 11.3594 16.9056C 11.2552 17.0054 11.1354 17.0553 11 17.0553C 10.8646 17.0553 10.7448 17.0054 10.6406 16.9056L 8.35938 14.7194C 8.25521 14.6196 8.20312 14.5048 8.20312 14.375C 8.20312 14.2452 8.25521 14.1304 8.35938 14.0306L 11 11.5L 8.35938 8.9694C 8.25521 8.86957 8.20312 8.75477 8.20312 8.625C 8.20312 8.49523 8.25521 8.38043 8.35938 8.2806L 10.6406 6.0944C 10.7448 5.99457 10.8646 5.94466 11 5.94466C 11.1354 5.94466 11.2552 5.99457 11.3594 6.0944L 14 8.625L 16.6406 6.0944C 16.7448 5.99457 16.8646 5.94466 17 5.94466C 17.1354 5.94466 17.2552 5.99457 17.3594 6.0944L 19.6406 8.2806C 19.7448 8.38043 19.7969 8.49523 19.7969 8.625C 19.7969 8.75477 19.7448 8.86957 19.6406 8.9694L 17 11.5L 19.6406 14.0306C 19.7448 14.1304 19.7969 14.2452 19.7969 14.375C 19.7969 14.5048 19.7448 14.6196 19.6406 14.7194ZM 4 19.1667L 24 19.1667L 24 3.83333L 4 3.83333L 4 19.1667ZM 28 2.39583L 28 20.6042C 28 21.263 27.7552 21.827 27.2656 22.2962C 26.776 22.7654 26.1875 23 25.5 23L 2.5 23C 1.8125 23 1.22396 22.7654 0.734375 22.2962C 0.244792 21.827 0 21.263 0 20.6042L 0 2.39583C 0 1.73698 0.244792 1.17296 0.734375 0.703776C 1.22396 0.234592 1.8125 0 2.5 0L 25.5 0C 26.1875 0 26.776 0.234592 27.2656 0.703776C 27.7552 1.17296 28 1.73698 28 2.39583Z"/>
</defs>
</svg>
