<svg width="23" height="23" viewBox="0 0 23 23" version="1.1" xmlns="http://www.w3.org/2000/svg" xmlns:xlink="http://www.w3.org/1999/xlink">
<title>&#239;&#129;&#149;</title>
<desc>Created using Figma</desc>
<g id="Canvas" transform="translate(275 230)">
<g id="&#239;&#129;&#149;">
<use xlink:href="#path0_fill" transform="translate(-275 -230)" fill="#646991"/>
</g>
</g>
<defs>
<path id="path0_fill" d="M 18.2083 12.4583L 18.2083 10.5417C 18.2083 10.2821 18.1135 10.0575 17.9238 9.86784C 17.7342 9.67817 17.5095 9.58333 17.25 9.58333L 13.4167 9.58333L 13.4167 5.75C 13.4167 5.49045 13.3218 5.26584 13.1322 5.07617C 12.9425 4.8865 12.7179 4.79167 12.4583 4.79167L 10.5417 4.79167C 10.2821 4.79167 10.0575 4.8865 9.86784 5.07617C 9.67817 5.26584 9.58333 5.49045 9.58333 5.75L 9.58333 9.58333L 5.75 9.58333C 5.49045 9.58333 5.26584 9.67817 5.07617 9.86784C 4.8865 10.0575 4.79167 10.2821 4.79167 10.5417L 4.79167 12.4583C 4.79167 12.7179 4.8865 12.9425 5.07617 13.1322C 5.26584 13.3218 5.49045 13.4167 5.75 13.4167L 9.58333 13.4167L 9.58333 17.25C 9.58333 17.5095 9.67817 17.7342 9.86784 17.9238C 10.0575 18.1135 10.2821 18.2083 10.5417 18.2083L 12.4583 18.2083C 12.7179 18.2083 12.9425 18.1135 13.1322 17.9238C 13.3218 17.7342 13.4167 17.5095 13.4167 17.25L 13.4167 13.4167L 17.25 13.4167C 17.5095 13.4167 17.7342 13.3218 17.9238 13.1322C 18.1135 12.9425 18.2083 12.7179 18.2083 12.4583ZM 21.4577 5.73503C 22.4859 7.49197 23 9.41363 23 11.5C 23 13.5864 22.4859 15.513 21.4577 17.2799C 20.4295 19.0369 19.0319 20.4295 17.265 21.4577C 15.508 22.4859 13.5864 23 11.5 23C 9.41363 23 7.48698 22.4859 5.72005 21.4577C 3.96311 20.4295 2.57053 19.0369 1.54232 17.2799C 0.514106 15.513 0 13.5864 0 11.5C 0 9.41363 0.514106 7.49197 1.54232 5.73503C 2.57053 3.9681 3.96311 2.57053 5.72005 1.54232C 7.48698 0.514106 9.41363 0 11.5 0C 13.5864 0 15.508 0.514106 17.265 1.54232C 19.0319 2.57053 20.4295 3.9681 21.4577 5.73503Z"/>
</defs>
</svg>
