<svg width="19" height="23" viewBox="0 0 19 23" version="1.1" xmlns="http://www.w3.org/2000/svg" xmlns:xlink="http://www.w3.org/1999/xlink">
<title>&#239;&#135;&#184;</title>
<desc>Created using Figma</desc>
<g id="Canvas" transform="translate(250 230)">
<g id="&#239;&#135;&#184;">
<use xlink:href="#path0_fill" transform="translate(-250 -230)" fill="#8F495E"/>
</g>
</g>
<defs>
<path id="path0_fill" d="M 6.90909 18.6875L 6.90909 8.14583C 6.90909 8.00608 6.86861 7.89128 6.78764 7.80143C 6.70668 7.71159 6.60322 7.66667 6.47727 7.66667L 5.61364 7.66667C 5.48769 7.66667 5.38423 7.71159 5.30327 7.80143C 5.2223 7.89128 5.18182 8.00608 5.18182 8.14583L 5.18182 18.6875C 5.18182 18.8273 5.2223 18.9421 5.30327 19.0319C 5.38423 19.1217 5.48769 19.1667 5.61364 19.1667L 6.47727 19.1667C 6.60322 19.1667 6.70668 19.1217 6.78764 19.0319C 6.86861 18.9421 6.90909 18.8273 6.90909 18.6875ZM 10.3636 18.6875L 10.3636 8.14583C 10.3636 8.00608 10.3232 7.89128 10.2422 7.80143C 10.1612 7.71159 10.0578 7.66667 9.93182 7.66667L 9.06818 7.66667C 8.94223 7.66667 8.83878 7.71159 8.75781 7.80143C 8.67685 7.89128 8.63636 8.00608 8.63636 8.14583L 8.63636 18.6875C 8.63636 18.8273 8.67685 18.9421 8.75781 19.0319C 8.83878 19.1217 8.94223 19.1667 9.06818 19.1667L 9.93182 19.1667C 10.0578 19.1667 10.1612 19.1217 10.2422 19.0319C 10.3232 18.9421 10.3636 18.8273 10.3636 18.6875ZM 13.8182 18.6875L 13.8182 8.14583C 13.8182 8.00608 13.7777 7.89128 13.6967 7.80143C 13.6158 7.71159 13.5123 7.66667 13.3864 7.66667L 12.5227 7.66667C 12.3968 7.66667 12.2933 7.71159 12.2124 7.80143C 12.1314 7.89128 12.0909 8.00608 12.0909 8.14583L 12.0909 18.6875C 12.0909 18.8273 12.1314 18.9421 12.2124 19.0319C 12.2933 19.1217 12.3968 19.1667 12.5227 19.1667L 13.3864 19.1667C 13.5123 19.1667 13.6158 19.1217 13.6967 19.0319C 13.7777 18.9421 13.8182 18.8273 13.8182 18.6875ZM 6.47727 3.83333L 12.5227 3.83333L 11.875 2.08138C 11.812 1.99154 11.7356 1.93663 11.6456 1.91667L 7.3679 1.91667C 7.27794 1.93663 7.20147 1.99154 7.13849 2.08138L 6.47727 3.83333ZM 19 4.3125L 19 5.27083C 19 5.41059 18.9595 5.52539 18.8786 5.61523C 18.7976 5.70508 18.6941 5.75 18.5682 5.75L 17.2727 5.75L 17.2727 19.9453C 17.2727 20.7739 17.0613 21.4876 16.6385 22.0866C 16.2157 22.6955 15.7074 23 15.1136 23L 3.88636 23C 3.29261 23 2.78433 22.7055 2.36151 22.1165C 1.93868 21.5375 1.72727 20.8338 1.72727 20.0052L 1.72727 5.75L 0.431818 5.75C 0.305871 5.75 0.202415 5.70508 0.121449 5.61523C 0.040483 5.52539 0 5.41059 0 5.27083L 0 4.3125C 0 4.17274 0.040483 4.05794 0.121449 3.9681C 0.202415 3.87826 0.305871 3.83333 0.431818 3.83333L 4.60156 3.83333L 5.54616 1.33268C 5.68111 0.963325 5.92401 0.648872 6.27486 0.389323C 6.62571 0.129774 6.98106 0 7.34091 0L 11.6591 0C 12.0189 0 12.3743 0.129774 12.7251 0.389323C 13.076 0.648872 13.3189 0.963325 13.4538 1.33268L 14.3984 3.83333L 18.5682 3.83333C 18.6941 3.83333 18.7976 3.87826 18.8786 3.9681C 18.9595 4.05794 19 4.17274 19 4.3125Z"/>
</defs>
</svg>
